<?xml version="1.0" standalone="no"?><!DOCTYPE svg PUBLIC "-//W3C//DTD SVG 1.1//EN" "http://www.w3.org/Graphics/SVG/1.1/DTD/svg11.dtd"><svg t="1565581822865" class="icon" viewBox="0 0 1024 1024" version="1.1" xmlns="http://www.w3.org/2000/svg" p-id="1822" xmlns:xlink="http://www.w3.org/1999/xlink" width="200" height="200"><defs><style type="text/css"></style></defs><path d="M512.697 75.445c-247.539 0-448.208 200.669-448.208 448.208 0 247.54 200.669 448.208 448.208 448.208 247.54 0 448.208-200.668 448.208-448.208 0-247.539-200.668-448.208-448.208-448.208zM690.686 657.208c12.265 12.274 12.265 32.171 0 44.427-12.283 12.274-32.171 12.274-44.453 0l-133.316-133.316-133.327 133.316c-12.274 12.274-32.161 12.274-44.445 0-12.265-12.256-12.265-32.153 0-44.427l133.335-133.353-133.335-133.317c-12.265-12.256-12.265-32.171 0-44.444 12.283-12.256 32.171-12.256 44.445 0l133.327 133.335 133.316-133.335c12.283-12.256 32.171-12.256 44.453 0 12.265 12.274 12.265 32.189 0 44.444l-133.335 133.317 133.335 133.353z" p-id="1823" fill="#FD4A53"></path></svg>