<svg t="1565589704219" class="icon" viewBox="0 0 1024 1024" version="1.1" xmlns="http://www.w3.org/2000/svg" p-id="10918" width="32" height="32"><path d="M575.52 313.344C545.376 248 502.496 190.08 448.032 141.12L447.072 140.288C437.728 132.8 423.008 122.816 402.208 122.816c-32.64 0-59.136 25.536-59.136 56.96 0 28.672 19.136 39.936 37.696 50.752 0.576 0.32 1.152 0.704 1.792 1.024C463.648 310.976 508.32 415.616 508.32 526.399999c0 109.248-43.52 212.928-122.56 291.968-1.216 0.896-3.392 2.432-5.376 3.84C366.432 831.999999 343.072 848.383999 343.072 874.751999c0 31.424 26.56 56.96 59.136 56.96 30.208 0 60.032-29.184 68.352-39.232 97.984-98.88 151.936-228.416 151.936-364.928C622.496 452.992 606.688 380.928 575.52 313.344z" p-id="10919" fill="#ffffff"></path><path d="M225.696 274.88l-1.92-1.472L221.472 272.32C210.208 266.944 200.16 264.448 189.856 264.448c-3.968 0-7.36 0.384-10.112 0.64C178.976 265.216 178.208 265.28 177.44 265.344 148.128 268.032 128.416 290.88 128.416 322.112c0 25.856 15.488 36.416 30.464 46.656 3.712 2.56 7.552 5.184 11.776 8.32C213.088 417.152 236.448 470.4 236.448 527.103999c0 54.464-21.888 106.176-61.632 145.792-4.48 2.688-8.64 4.8-12.672 6.912-15.104 7.808-33.92 17.536-33.92 45.056 0 31.424 26.56 56.96 59.136 56.96 22.656 0 42.624-7.552 59.456-22.528l0.256-0.192c32.576-29.76 58.24-64.768 76.224-104C341.984 614.335999 351.52 570.879999 351.52 526.015999 351.52 427.968 305.632 336.384 225.696 274.88z" p-id="10920" fill="#ffffff"></path><path d="M850.208 256.96c-29.056-80-71.296-154.688-125.44-222.144C709.472 11.712 690.272 0 667.616 0c-32 0-56.064 24-56.064 55.808 0 20.224 10.24 32.512 20.096 44.416l0.896 1.088c45.952 57.984 81.728 122.176 106.304 190.72 25.472 71.104 38.336 145.6 38.336 221.44 0 76.48-13.12 151.616-39.04 223.232-24.96 68.992-61.248 133.504-107.904 191.744-9.216 10.56-14.272 23.808-14.272 37.312 0 32.064 27.136 58.24 60.544 58.24 24.32 0 46.208-14.144 55.616-35.648 51.712-66.304 91.968-139.456 119.744-217.408 29.12-81.792 43.904-167.488 43.904-254.592C895.776 427.456 880.416 340.16 850.208 256.96z" p-id="10921" fill="#ffffff"></path></svg>